# xmcd CD database file
#
# Track frame offsets:
#	150
#	16719
#	34988
#	49488
#	67133
#	88914
#	104929
#	118358
#	134342
#	152092
#	168448
#
# Disc length: 2506 seconds
#
# Revision: 1
# Processed by: cddbd v1.5.1PL2 Copyright (c) Steve Scherf et al.
# Submitted via: CDex 1.51
#
DISCID=a609c80b
DTITLE=Ayres Rock - Hotspell
DYEAR=1980
DGENRE=Jazz/Rock
TTITLE0=City Night Life
TTITLE1=Distant Places
TTITLE2=Fools Romance
TTITLE3=Islands
TTITLE4=Love Somebody
TTITLE5=Moomba Song
TTITLE6=On The Avenue
TTITLE7=On The Road
TTITLE8=Sandcastles
TTITLE9=Sister Feels She Should
TTITLE10=So Deep In Love
EXTD=YEAR: 1980
EXTT0=
EXTT1=
EXTT2=
EXTT3=
EXTT4=
EXTT5=
EXTT6=
EXTT7=
EXTT8=
EXTT9=
EXTT10=
PLAYORDER=
